<svg width="183" height="38" viewBox="0 0 183 38" fill="none" xmlns="http://www.w3.org/2000/svg">
<path d="M32.7974 2.37665H39.8863L47.3723 20.5809H47.6912L55.1786 2.37665H62.2675V29.4702H56.6918V11.8415H56.4662L49.4239 29.3382H45.6335L38.5943 11.7696H38.3671V29.4702H32.7974V2.37665Z" fill="#30373D"/>
<path d="M72.2919 29.9438C71.1098 29.9653 69.9366 29.7339 68.8503 29.2651C67.8773 28.8402 67.0494 28.1386 66.4686 27.2468C65.8871 26.3498 65.5958 25.2345 65.5948 23.9009C65.5948 22.7746 65.8007 21.8278 66.2126 21.0603C66.609 20.3117 67.1877 19.676 67.8946 19.2124C68.6398 18.7303 69.4584 18.3738 70.318 18.1569C71.256 17.9142 72.2117 17.7467 73.1761 17.6561C74.3491 17.5315 75.2948 17.4149 76.0133 17.3063C76.7308 17.1956 77.2533 17.0312 77.5763 16.8114C77.7349 16.7052 77.8632 16.5593 77.9486 16.3881C78.0339 16.2169 78.0734 16.0263 78.0631 15.8352V15.7559C78.0631 14.9197 77.8026 14.2718 77.2816 13.8124C76.7606 13.3529 76.0228 13.1241 75.0681 13.1261C74.0608 13.1261 73.259 13.3479 72.6625 13.7914C72.0937 14.1997 71.6776 14.7877 71.4806 15.4614L66.3049 15.0383C66.5427 13.857 67.076 12.756 67.8545 11.8389C68.6659 10.9124 69.6912 10.1999 70.8405 9.7638C72.0631 9.27442 73.4798 9.03023 75.0904 9.03123C76.1779 9.02689 77.2617 9.16 78.3161 9.42741C79.2963 9.6692 80.2258 10.0843 81.0611 10.6533C81.8561 11.1998 82.5077 11.9312 82.9605 12.7853C83.4249 13.6514 83.6571 14.687 83.6571 15.892V29.5611H78.3489V26.7519H78.1911C77.8665 27.387 77.425 27.9547 76.8901 28.4249C76.3162 28.9226 75.6513 29.3034 74.9326 29.5461C74.081 29.8273 73.1882 29.9618 72.2919 29.9438ZM73.8951 26.0657C74.6512 26.0807 75.3996 25.9108 76.0758 25.5708C76.6824 25.2634 77.1963 24.7989 77.5644 24.2253C77.9265 23.6541 78.1138 22.9887 78.1033 22.3117V20.1678C77.8796 20.303 77.6388 20.4071 77.3873 20.4772C77.0523 20.5781 76.7125 20.6619 76.3691 20.7284C75.993 20.8032 75.6164 20.8689 75.2393 20.9258L74.2151 21.0753C73.6241 21.1533 73.0457 21.3081 72.4943 21.5357C72.0459 21.715 71.6519 22.0088 71.3511 22.3879C71.0702 22.7711 70.9265 23.2384 70.9432 23.714C70.9432 24.4795 71.2216 25.062 71.7783 25.4617C72.3351 25.8614 73.0406 26.0627 73.8951 26.0657Z" fill="#30373D"/>
<path d="M93.639 2.37665V29.4702H87.9351V2.37665H93.639Z" fill="#30373D"/>
<path d="M103.621 2.37665V29.4702H98.3922V2.37665H103.621Z" fill="#30373D"/>
<path d="M110.988 6.62756C110.177 6.64278 109.392 6.34405 108.805 5.79613C108.519 5.54228 108.29 5.2324 108.134 4.88653C107.978 4.54066 107.898 4.16651 107.899 3.7883C107.899 3.41009 107.981 3.03624 108.138 2.69094C108.296 2.34565 108.525 2.0366 108.812 1.78379C109.407 1.24798 110.185 0.950623 110.992 0.950623C111.8 0.950623 112.578 1.24798 113.172 1.78379C113.457 2.03761 113.685 2.34715 113.841 2.69253C113.997 3.0379 114.078 3.41147 114.078 3.78921C114.078 4.16696 113.997 4.54053 113.841 4.88591C113.685 5.23128 113.457 5.54082 113.172 5.79464C112.584 6.34403 111.799 6.64342 110.988 6.62756ZM108.114 29.4656V9.2293H113.836V29.4701L108.114 29.4656Z" fill="#30373D"/>
<path d="M128.925 9.08967V13.2748H116.93V9.08967H128.925ZM119.653 4.27789H125.178V23.0154C125.178 23.5299 125.256 23.9285 125.412 24.2109C125.553 24.4803 125.785 24.6902 126.066 24.8035C126.379 24.9223 126.711 24.9801 127.046 24.9739C127.307 24.9732 127.567 24.9489 127.823 24.9013L128.42 24.7902L129.288 28.9383C129.012 29.0252 128.623 29.1274 128.122 29.2449C127.52 29.3752 126.908 29.4476 126.293 29.4612C124.962 29.5136 123.797 29.3348 122.798 28.9249C121.842 28.5505 121.028 27.8824 120.47 27.0153C119.916 26.1531 119.644 25.0637 119.653 23.7472V4.27789Z" fill="#30373D"/>
<path d="M136.255 37.0751C135.587 37.0785 134.92 37.0231 134.262 36.9097C133.738 36.8245 133.224 36.6844 132.729 36.4915L133.992 32.2693C134.571 32.4585 135.173 32.5703 135.781 32.6017C136.269 32.6309 136.754 32.5006 137.163 32.2302C137.552 31.9639 137.871 31.5127 138.115 30.8764L138.445 30.0145L131.19 9.03113H137.084L141.268 24.0068H141.478L145.702 9.03113H151.629L143.774 31.6255C143.429 32.6646 142.911 33.6367 142.242 34.5C141.595 35.3251 140.76 35.9795 139.807 36.4073C138.824 36.8515 137.64 37.0741 136.255 37.0751Z" fill="#30373D"/>
<path d="M20.439 16.6065C20.436 14.3462 19.6789 12.151 18.2865 10.366C16.8941 8.58095 14.9455 7.30738 12.7471 6.74552C12.9502 4.73644 13.2175 2.73033 13.5445 0.743554L9.0363 0C8.67344 2.19051 8.38374 4.41374 8.16572 6.6325C5.85998 7.10339 3.78816 8.35253 2.30035 10.1689C0.812553 11.9852 0 14.2573 0 16.6013C0 18.9453 0.812553 21.2175 2.30035 23.0338C3.78816 24.8501 5.85998 26.0993 8.16572 26.5702C8.43152 29.299 8.80932 32.0249 9.29315 34.6987L13.7924 33.8897C13.3444 31.4449 12.9995 28.954 12.7471 26.4542C14.9434 25.8931 16.8905 24.6216 18.2827 22.8393C19.6749 21.0569 20.4333 18.8646 20.439 16.6065ZM10.222 22.2308C9.10468 22.2305 8.01258 21.9003 7.08376 21.2818C6.15494 20.6634 5.43112 19.7846 5.00383 18.7565C4.57654 17.7285 4.46497 16.5973 4.68323 15.5061C4.90149 14.4148 5.43977 13.4126 6.23002 12.626C7.02027 11.8394 8.02697 11.3039 9.12284 11.0871C10.2187 10.8703 11.3545 10.9821 12.3866 11.4081C13.4188 11.8342 14.3008 12.5555 14.9213 13.4808C15.5418 14.4061 15.8728 15.4939 15.8725 16.6065C15.8705 18.0981 15.2745 19.5279 14.2151 20.5824C13.1558 21.6368 11.7197 22.2296 10.222 22.2308Z" fill="#525EC1"/>
<path d="M183 16.5912C182.996 14.2501 182.182 11.982 180.695 10.168C179.208 8.35403 177.139 7.10487 174.836 6.63052C174.619 4.4139 174.328 2.19134 173.966 0L169.456 0.743331C169.784 2.72505 170.053 4.73651 170.255 6.7435C168.054 7.3024 166.104 8.57474 164.71 10.3597C163.317 12.1446 162.561 14.3405 162.561 16.6008C162.561 18.8611 163.317 21.057 164.71 22.8419C166.104 24.6269 168.054 25.8992 170.255 26.4581C170.002 28.9513 169.657 31.4414 169.209 33.8914L173.708 34.6987C174.192 32.0227 174.57 29.3006 174.836 26.5726C177.143 26.0978 179.214 24.8456 180.702 23.0273C182.189 21.209 183.001 18.9358 183 16.5912ZM172.779 22.2137C171.661 22.2137 170.569 21.8838 169.64 21.2658C168.71 20.6477 167.986 19.7693 167.558 18.7416C167.131 17.7138 167.019 16.5829 167.237 15.4919C167.455 14.4009 167.994 13.3988 168.784 12.6123C169.574 11.8259 170.581 11.2903 171.678 11.0735C172.774 10.8567 173.91 10.9683 174.942 11.3942C175.975 11.8201 176.857 12.5411 177.478 13.4662C178.099 14.3913 178.43 15.4788 178.429 16.5912C178.427 18.082 177.831 19.5112 176.772 20.5653C175.713 21.6193 174.277 22.2121 172.779 22.2137Z" fill="#525EC1"/>
</svg>
