<svg width="183" height="38" viewBox="0 0 183 38" fill="none" xmlns="http://www.w3.org/2000/svg">
<path d="M32.7974 2.37668H39.8863L47.3722 20.5809H47.6911L55.1786 2.37668H62.2675V29.4702H56.6917V11.8416H56.4661L49.4239 29.3383H45.6335L38.5942 11.7696H38.3671V29.4702H32.7974V2.37668Z" fill="#F7F8FA"/>
<path d="M72.2918 29.9439C71.1097 29.9653 69.9365 29.734 68.8502 29.2651C67.8772 28.8402 67.0493 28.1386 66.4685 27.2468C65.887 26.3498 65.5957 25.2345 65.5947 23.9009C65.5947 22.7747 65.8006 21.8278 66.2125 21.0604C66.609 20.3117 67.1876 19.6761 67.8946 19.2125C68.6397 18.7304 69.4583 18.3738 70.318 18.157C71.2559 17.9143 72.2116 17.7468 73.176 17.6562C74.349 17.5316 75.2948 17.415 76.0132 17.3063C76.7307 17.1957 77.2532 17.0312 77.5762 16.8115C77.7348 16.7052 77.8631 16.5593 77.9485 16.3882C78.0338 16.217 78.0733 16.0264 78.063 15.8352V15.756C78.063 14.9198 77.8025 14.2719 77.2815 13.8124C76.7605 13.353 76.0227 13.1242 75.068 13.1262C74.0607 13.1262 73.2589 13.348 72.6625 13.7915C72.0936 14.1997 71.6775 14.7877 71.4805 15.4615L66.3048 15.0384C66.5426 13.8571 67.0759 12.7561 67.8544 11.839C68.6658 10.9125 69.6911 10.1999 70.8405 9.76386C72.0631 9.27448 73.4797 9.03029 75.0903 9.03129C76.1779 9.02696 77.2616 9.16006 78.3161 9.42748C79.2962 9.66926 80.2257 10.0844 81.061 10.6534C81.856 11.1999 82.5077 11.9313 82.9604 12.7853C83.4248 13.6515 83.6571 14.687 83.6571 15.892V29.5612H78.3488V26.752H78.191C77.8664 27.3871 77.4249 27.9548 76.89 28.4249C76.3161 28.9226 75.6512 29.3035 74.9325 29.5462C74.0809 29.8274 73.1881 29.9618 72.2918 29.9439ZM73.895 26.0658C74.6511 26.0807 75.3995 25.9109 76.0758 25.5709C76.6824 25.2635 77.1962 24.799 77.5643 24.2254C77.9264 23.6541 78.1138 22.9888 78.1032 22.3117V20.1678C77.8796 20.303 77.6387 20.4072 77.3872 20.4773C77.0522 20.5781 76.7124 20.662 76.369 20.7285C75.9929 20.8032 75.6163 20.869 75.2392 20.9258L74.215 21.0753C73.624 21.1534 73.0456 21.3081 72.4943 21.5358C72.0458 21.7151 71.6518 22.0088 71.351 22.388C71.0701 22.7712 70.9264 23.2385 70.9432 23.7141C70.9432 24.4795 71.2215 25.0621 71.7783 25.4618C72.335 25.8614 73.0406 26.0628 73.895 26.0658Z" fill="#F7F8FA"/>
<path d="M93.639 2.37668V29.4702H87.9351V2.37668H93.639Z" fill="#F7F8FA"/>
<path d="M103.621 2.37668V29.4702H98.3922V2.37668H103.621Z" fill="#F7F8FA"/>
<path d="M110.988 6.62759C110.177 6.64281 109.392 6.34408 108.805 5.79616C108.519 5.54231 108.29 5.23243 108.134 4.88656C107.978 4.54069 107.898 4.16655 107.899 3.78833C107.899 3.41012 107.981 3.03627 108.138 2.69097C108.296 2.34568 108.525 2.03663 108.812 1.78382C109.407 1.24801 110.185 0.950653 110.992 0.950653C111.8 0.950653 112.578 1.24801 113.172 1.78382C113.457 2.03764 113.685 2.34718 113.841 2.69256C113.997 3.03793 114.078 3.4115 114.078 3.78924C114.078 4.16699 113.997 4.54056 113.841 4.88594C113.685 5.23131 113.457 5.54085 113.172 5.79467C112.584 6.34406 111.799 6.64345 110.988 6.62759ZM108.114 29.4657V9.22933H113.836V29.4701L108.114 29.4657Z" fill="#F7F8FA"/>
<path d="M128.925 9.08973V13.2749H116.93V9.08973H128.925ZM119.653 4.27795H125.178V23.0154C125.178 23.53 125.256 23.9285 125.412 24.211C125.553 24.4803 125.785 24.6903 126.066 24.8036C126.379 24.9223 126.711 24.9801 127.046 24.9739C127.307 24.9733 127.567 24.949 127.823 24.9013L128.42 24.7902L129.288 28.9383C129.012 29.0252 128.623 29.1274 128.121 29.245C127.52 29.3752 126.908 29.4476 126.293 29.4613C124.962 29.5136 123.797 29.3349 122.797 28.925C121.842 28.5505 121.028 27.8825 120.47 27.0154C119.916 26.1532 119.644 25.0638 119.653 23.7473V4.27795Z" fill="#F7F8FA"/>
<path d="M136.255 37.0752C135.587 37.0786 134.92 37.0232 134.262 36.9097C133.738 36.8246 133.224 36.6844 132.729 36.4916L133.992 32.2693C134.571 32.4586 135.173 32.5703 135.781 32.6018C136.269 32.6309 136.754 32.5006 137.163 32.2302C137.552 31.964 137.871 31.5127 138.115 30.8765L138.445 30.0146L131.19 9.03119H137.084L141.268 24.0068H141.478L145.702 9.03119H151.629L143.774 31.6255C143.429 32.6647 142.911 33.6368 142.242 34.5C141.595 35.3251 140.76 35.9796 139.807 36.4073C138.824 36.8516 137.64 37.0742 136.255 37.0752Z" fill="#F7F8FA"/>
<path d="M20.439 16.6065C20.436 14.3462 19.6789 12.151 18.2865 10.366C16.8941 8.58095 14.9455 7.30738 12.7471 6.74552C12.9502 4.73644 13.2175 2.73033 13.5445 0.743554L9.0363 0C8.67344 2.19051 8.38374 4.41374 8.16572 6.6325C5.85998 7.10339 3.78816 8.35253 2.30035 10.1689C0.812553 11.9852 0 14.2573 0 16.6013C0 18.9453 0.812553 21.2175 2.30035 23.0338C3.78816 24.8501 5.85998 26.0993 8.16572 26.5702C8.43152 29.299 8.80932 32.0249 9.29315 34.6987L13.7924 33.8897C13.3444 31.4449 12.9995 28.954 12.7471 26.4542C14.9434 25.8931 16.8905 24.6216 18.2827 22.8393C19.6749 21.0569 20.4333 18.8646 20.439 16.6065ZM10.222 22.2308C9.10468 22.2305 8.01258 21.9003 7.08376 21.2818C6.15494 20.6634 5.43112 19.7846 5.00383 18.7565C4.57654 17.7285 4.46497 16.5973 4.68323 15.5061C4.90149 14.4148 5.43977 13.4126 6.23002 12.626C7.02027 11.8394 8.02697 11.3039 9.12284 11.0871C10.2187 10.8703 11.3545 10.9821 12.3866 11.4081C13.4188 11.8342 14.3008 12.5555 14.9213 13.4808C15.5418 14.4061 15.8728 15.4939 15.8725 16.6065C15.8705 18.0981 15.2745 19.5279 14.2151 20.5824C13.1558 21.6368 11.7197 22.2296 10.222 22.2308Z" fill="#525EC1"/>
<path d="M183 16.5912C182.996 14.2501 182.182 11.982 180.695 10.168C179.208 8.35403 177.139 7.10487 174.836 6.63052C174.619 4.4139 174.328 2.19134 173.966 0L169.456 0.743331C169.784 2.72505 170.053 4.73651 170.255 6.7435C168.054 7.3024 166.104 8.57474 164.71 10.3597C163.317 12.1446 162.561 14.3405 162.561 16.6008C162.561 18.8611 163.317 21.057 164.71 22.8419C166.104 24.6269 168.054 25.8992 170.255 26.4581C170.002 28.9513 169.657 31.4414 169.209 33.8914L173.708 34.6987C174.192 32.0227 174.57 29.3006 174.836 26.5726C177.143 26.0978 179.214 24.8456 180.702 23.0273C182.189 21.209 183.001 18.9358 183 16.5912ZM172.779 22.2137C171.661 22.2137 170.569 21.8838 169.64 21.2658C168.71 20.6477 167.986 19.7693 167.558 18.7416C167.131 17.7138 167.019 16.5829 167.237 15.4919C167.455 14.4009 167.994 13.3988 168.784 12.6123C169.574 11.8259 170.581 11.2903 171.678 11.0735C172.774 10.8567 173.91 10.9683 174.942 11.3942C175.975 11.8201 176.857 12.5411 177.478 13.4662C178.099 14.3913 178.43 15.4788 178.429 16.5912C178.427 18.082 177.831 19.5112 176.772 20.5653C175.713 21.6193 174.277 22.2121 172.779 22.2137Z" fill="#525EC1"/>
</svg>
